<svg version="1.1" id="Layer_1" xmlns="http://www.w3.org/2000/svg" xmlns:xlink="http://www.w3.org/1999/xlink" x="0px" y="0px"
	 width="100%" viewBox="0 0 416 601" enable-background="new 0 0 416 601" xml:space="preserve">
<path fill="#1C961B" opacity="1.000000" stroke="none" 
	d="
M417.000000,153.000000 
	C417.000000,302.999969 417.000000,452.499908 417.000000,601.999878 
	C278.333405,601.999939 139.666809,601.999939 1.000155,602.000000 
	C1.000103,401.666779 1.000103,201.333572 1.000051,1.000262 
	C139.666519,1.000175 278.333038,1.000175 416.999756,1.000087 
	C417.000000,51.500000 417.000000,102.000000 417.000000,153.000000 
M51.253094,68.740578 
	C40.508572,68.486115 29.764050,68.231651 19.000679,67.042900 
	C19.000679,54.461647 19.000679,41.880398 19.000679,28.884354 
	C71.232674,28.884354 122.646072,28.884354 174.059464,28.884354 
	C174.058380,28.694506 174.057297,28.504656 174.056229,28.314808 
	C122.174576,28.314808 70.292931,28.314808 18.349936,28.314808 
	C18.349936,210.017380 18.349936,391.371277 18.349936,572.820496 
	C19.751949,572.882202 20.739687,572.963501 21.727436,572.963623 
	C74.552536,572.969788 127.377640,572.971802 180.202744,572.954956 
	C181.523331,572.954529 182.843872,572.738770 184.802628,573.416809 
	C184.802628,579.469910 184.802628,585.523071 184.802628,591.914734 
	C186.774673,591.798523 188.150574,591.717407 190.028214,591.606750 
	C190.028214,585.186768 190.028214,579.109253 190.961655,573.007812 
	C203.694778,572.929138 216.427887,572.850403 229.694611,573.603333 
	C229.694611,579.631592 229.694611,585.659790 229.694611,592.036804 
	C231.765976,591.858948 233.132889,591.741516 234.997147,591.581421 
	C234.997147,585.147644 234.997147,579.072144 235.934814,572.998962 
	C289.231262,572.999207 342.527710,573.009521 395.824127,572.958557 
	C397.710205,572.956787 399.595734,572.348083 401.789825,571.260376 
	C401.859375,569.765076 401.989777,568.269714 401.989868,566.774414 
	C401.998962,388.947601 402.000275,211.120773 401.972076,33.293961 
	C401.971802,31.496920 401.574921,29.699942 400.688904,27.303665 
	C381.799500,27.229801 362.910126,27.155935 343.083832,27.000305 
	C307.031433,27.012585 270.979034,27.024864 234.738449,26.115421 
	C234.725647,22.155745 234.557236,18.188694 234.744400,14.238491 
	C234.927048,10.383209 233.317825,9.683642 229.710983,11.015751 
	C229.710983,16.340670 229.710983,21.603636 228.823898,27.051102 
	C215.844666,27.058607 202.865448,27.066111 189.807220,26.132460 
	C189.807220,21.049118 189.807220,15.965775 189.807220,10.740658 
	C187.872406,10.740658 186.625778,10.740658 184.864227,10.740658 
	C184.864227,30.281485 184.864227,49.573189 183.947937,68.955711 
	C181.449524,68.969551 178.951096,68.994469 176.452682,68.995590 
	C134.969391,69.014137 93.486107,69.029694 51.253094,68.740578 
z"/>
<path fill="#5CB45C" opacity="1.000000" stroke="none" 
	d="
M401.363159,27.902935 
	C401.574921,29.699942 401.971802,31.496920 401.972076,33.293961 
	C402.000275,211.120773 401.998962,388.947601 401.989868,566.774414 
	C401.989777,568.269714 401.859375,569.765076 401.234314,571.598877 
	C400.411682,571.909424 400.144531,571.881592 399.914734,571.396240 
	C399.968109,559.854553 400.073059,548.768860 399.903442,537.687378 
	C399.878265,536.041138 398.559204,534.414734 397.831055,532.639648 
	C397.823395,532.500122 397.840424,532.221069 398.223083,532.048462 
	C399.070953,529.898804 399.936310,527.922852 399.941620,525.944519 
	C400.026489,494.352875 400.016785,462.760895 399.992035,431.169006 
	C399.984802,421.932709 400.822632,423.159088 391.617523,422.959656 
	C382.524170,422.762604 373.434845,422.380157 364.781342,422.119324 
	C375.166840,421.778076 385.115356,421.121674 395.062317,421.145264 
	C399.264526,421.155243 400.067017,419.654510 400.057373,415.936676 
	C399.962524,379.470581 400.043457,343.003906 399.873718,306.538361 
	C399.865112,304.689392 398.020233,302.848938 397.434418,300.956360 
	C398.558014,299.655731 399.902435,298.405121 399.906219,297.150482 
	C400.018005,259.852722 399.966400,222.554489 400.049469,185.256561 
	C400.056885,181.930740 398.803589,180.960175 395.637970,181.001907 
	C384.150970,181.153336 372.661285,181.101807 361.170837,180.754059 
	C361.159912,179.884476 361.150787,179.387665 361.600067,178.928406 
	C373.201263,178.981705 384.345734,178.893494 395.485870,179.074203 
	C398.993744,179.131134 400.067291,177.876495 400.054718,174.441910 
	C399.927948,139.683578 399.928619,104.924782 400.089355,70.030334 
	C400.154114,69.541260 400.023010,69.187981 399.924316,68.377464 
	C399.869019,54.689667 399.781372,41.459110 400.112183,28.152672 
	C400.808105,28.018841 401.085632,27.960890 401.363159,27.902935 
z"/>
<path fill="#9CD19C" opacity="1.000000" stroke="none" 
	d="
M184.164429,572.623474 
	C182.843872,572.738770 181.523331,572.954529 180.202744,572.954956 
	C127.377640,572.971802 74.552536,572.969788 21.727436,572.963623 
	C20.739687,572.963501 19.751949,572.882202 18.349936,572.820496 
	C18.349936,391.371277 18.349936,210.017380 18.349936,28.314808 
	C70.292931,28.314808 122.174576,28.314808 174.056229,28.314808 
	C174.057297,28.504656 174.058380,28.694506 174.059464,28.884354 
	C122.646072,28.884354 71.232674,28.884354 19.000679,28.884354 
	C19.000679,41.880398 19.000679,54.461647 18.959702,67.849815 
	C18.952200,69.112244 18.985676,69.567757 19.009838,70.490219 
	C18.998592,105.779816 18.981596,140.602463 18.998623,175.425095 
	C19.018908,216.910690 19.068380,258.396271 19.074974,300.245422 
	C19.048824,301.094574 19.052912,301.580170 19.033661,302.529755 
	C19.010323,342.231750 19.010323,381.469757 19.010323,420.639709 
	C32.405167,420.639709 44.990162,420.639709 57.891129,420.639709 
	C57.891129,380.853241 57.891129,341.398682 58.193459,301.904724 
	C58.693302,301.913300 58.890812,301.961304 59.051289,302.476135 
	C59.014256,342.135864 59.014256,381.328827 59.014256,421.134918 
	C65.757149,421.134918 71.873802,421.134918 77.992233,421.317444 
	C77.994026,421.500000 77.990417,421.865082 77.526199,421.926880 
	C71.138206,421.988708 65.214439,421.988708 59.311417,421.988708 
	C59.311417,459.039551 59.311417,495.272522 59.311417,532.144653 
	C69.080948,532.144653 78.535362,532.144653 87.991119,532.322327 
	C87.992455,532.500000 87.989754,532.855347 87.525803,532.920898 
	C64.498795,532.986511 41.935738,532.986511 19.267923,532.986511 
	C19.267923,546.296204 19.267923,558.871399 19.267923,572.029846 
	C21.467583,572.029846 23.419827,572.029846 25.372070,572.029846 
	C76.142860,572.029846 126.913658,572.025635 177.684448,572.044678 
	C179.835693,572.045471 181.986862,572.262817 184.200180,572.434326 
	C184.262283,572.489380 184.164429,572.623474 184.164429,572.623474 
M58.009560,487.500000 
	C58.009560,465.769745 58.009560,444.039520 58.009560,422.343567 
	C44.605476,422.343567 32.027222,422.343567 19.396645,422.343567 
	C19.396645,459.009979 19.396645,495.358551 19.396645,531.686646 
	C32.379475,531.686646 44.957115,531.686646 58.009567,531.686646 
	C58.009567,517.065308 58.009567,502.782654 58.009560,487.500000 
z"/>
<path fill="#F1F9F1" opacity="1.000000" stroke="none" 
	d="
M184.483521,573.020142 
	C184.164429,572.623474 184.262283,572.489380 184.528442,572.042358 
	C184.794586,558.495789 184.794586,545.396179 184.794586,532.235840 
	C186.562820,532.235840 188.216370,532.235840 189.844528,532.437317 
	C189.819138,532.638794 190.001465,533.001709 189.921326,533.464233 
	C189.841202,540.995911 189.841202,548.065002 189.841202,555.045044 
	C203.494583,555.045044 216.410034,555.045044 229.210281,555.045044 
	C229.210281,547.397522 229.210281,540.015259 229.256943,532.574707 
	C229.303604,532.516418 229.198349,532.410461 229.597916,532.335449 
	C231.619934,532.292725 233.242401,532.325073 234.771271,532.493652 
	C234.677689,532.629883 234.900787,532.873718 234.830353,533.345825 
	C234.839020,546.546387 234.918106,559.274841 234.966522,572.251648 
	C234.956268,572.665527 234.976700,572.831055 234.997147,572.996643 
	C234.997147,579.072144 234.997147,585.147644 234.997147,591.581421 
	C233.132889,591.741516 231.765976,591.858948 229.694611,592.036804 
	C229.694611,585.659790 229.694611,579.631592 229.493774,573.050171 
	C229.292923,572.497070 229.131607,572.238464 229.410599,571.826660 
	C229.689590,567.684814 229.689590,563.954773 229.689590,560.272827 
	C216.112320,560.272827 203.083115,560.272827 190.027939,560.272827 
	C190.027939,564.381775 190.027939,568.174927 190.002075,572.234009 
	C189.993546,572.677124 190.010880,572.854370 190.028214,573.031677 
	C190.028214,579.109253 190.028214,585.186768 190.028214,591.606750 
	C188.150574,591.717407 186.774673,591.798523 184.802628,591.914734 
	C184.802628,585.523071 184.802628,579.469910 184.483521,573.020142 
z"/>
<path fill="#F8FCF7" opacity="1.000000" stroke="none" 
	d="
M229.710983,26.866602 
	C229.710983,21.603636 229.710983,16.340670 229.710983,11.015751 
	C233.317825,9.683642 234.927048,10.383209 234.744400,14.238491 
	C234.557236,18.188694 234.725647,22.155745 234.739929,26.895821 
	C234.815201,28.111013 234.888992,28.545811 234.853516,29.439487 
	C234.825073,42.937641 234.905884,55.976921 234.910553,69.203110 
	C234.834381,69.390022 234.877258,69.791405 234.471588,69.849930 
	C232.432846,69.842339 230.799789,69.776215 229.243408,69.583954 
	C229.320084,69.457817 229.140793,69.223251 229.416443,68.889252 
	C229.692078,61.481209 229.692078,54.407177 229.692078,47.348331 
	C216.123825,47.348331 203.090118,47.348331 189.999969,47.348331 
	C189.999969,54.769119 189.999969,61.884583 189.918610,69.188675 
	C189.837250,69.377296 189.873825,69.786507 189.479553,69.852379 
	C187.755890,69.891113 186.426468,69.863976 185.069839,69.586426 
	C184.983139,69.178978 184.923676,69.021935 184.864227,68.864891 
	C184.864227,49.573189 184.864227,30.281485 184.864227,10.740658 
	C186.625778,10.740658 187.872406,10.740658 189.807220,10.740658 
	C189.807220,15.965775 189.807220,21.049118 189.776184,26.933800 
	C189.856369,28.172102 189.967606,28.609064 189.957016,29.494205 
	C189.835190,34.031349 189.835190,38.120308 189.835190,42.321819 
	C203.404663,42.321819 216.412689,42.321819 229.632172,42.321819 
	C229.632172,37.717010 229.632172,33.439667 229.695557,28.779684 
	C229.742950,27.886896 229.726974,27.376749 229.710983,26.866602 
z"/>
<path fill="#5CB45C" opacity="1.000000" stroke="none" 
	d="
M234.962784,28.980608 
	C234.888992,28.545811 234.815201,28.111013 234.834015,27.356680 
	C270.979034,27.024864 307.031433,27.012585 343.549072,27.287134 
	C344.029358,27.902105 344.037079,28.230421 343.575897,28.662180 
	C340.790009,28.811655 338.465698,28.896000 336.141327,28.898335 
	C302.415131,28.932209 268.688965,28.955093 234.962784,28.980608 
z"/>
<path fill="#95CE95" opacity="1.000000" stroke="none" 
	d="
M235.465973,572.997803 
	C234.976700,572.831055 234.956268,572.665527 235.435364,572.250488 
	C261.093811,572.000671 286.252747,572.019104 311.411621,571.995178 
	C340.900208,571.967224 370.388824,571.902466 399.877411,571.853699 
	C400.144531,571.881592 400.411682,571.909424 401.080170,571.979797 
	C399.595734,572.348083 397.710205,572.956787 395.824127,572.958557 
	C342.527710,573.009521 289.231262,572.999207 235.465973,572.997803 
z"/>
<path fill="#9CD19C" opacity="1.000000" stroke="none" 
	d="
M184.406082,68.910301 
	C184.923676,69.021935 184.983139,69.178978 184.597992,69.643242 
	C140.122101,69.933289 96.090851,69.916115 52.031738,69.686592 
	C52.003887,69.474243 52.002823,69.045929 52.002823,69.045929 
	C93.486107,69.029694 134.969391,69.014137 176.452682,68.995590 
	C178.951096,68.994469 181.449524,68.969551 184.406082,68.910301 
z"/>
<path fill="#6ABA6A" opacity="1.000000" stroke="none" 
	d="
M229.267441,26.958851 
	C229.726974,27.376749 229.742950,27.886896 229.250458,28.770744 
	C215.854294,29.111637 202.966568,29.078831 190.078857,29.046024 
	C189.967606,28.609064 189.856369,28.172102 189.815674,27.404377 
	C202.865448,27.066111 215.844666,27.058607 229.267441,26.958851 
z"/>
<path fill="#6ABA6A" opacity="1.000000" stroke="none" 
	d="
M51.627960,68.893250 
	C52.002823,69.045929 52.003887,69.474243 51.563503,69.758438 
	C40.421799,70.036186 29.720476,70.029732 19.019154,70.023270 
	C18.985676,69.567757 18.952200,69.112244 18.969124,68.316956 
	C29.764050,68.231651 40.508572,68.486115 51.627960,68.893250 
z"/>
<path fill="#6ABA6A" opacity="1.000000" stroke="none" 
	d="
M344.037445,28.558910 
	C344.037079,28.230421 344.029358,27.902105 344.017517,27.328016 
	C362.910126,27.155935 381.799500,27.229801 401.026031,27.603302 
	C401.085632,27.960890 400.808105,28.018841 399.667389,28.143259 
	C380.548584,28.326122 362.293030,28.442516 344.037445,28.558910 
z"/>
<path fill="#95CE95" opacity="1.000000" stroke="none" 
	d="
M190.494934,573.019775 
	C190.010880,572.854370 189.993546,572.677124 190.468781,572.246094 
	C203.684784,572.074341 216.408188,572.156433 229.131607,572.238464 
	C229.131607,572.238464 229.292923,572.497070 229.226959,572.634399 
	C216.427887,572.850403 203.694778,572.929138 190.494934,573.019775 
z"/>
<path fill="#1C961B" opacity="1.000000" stroke="none" 
	d="
M19.009838,70.490219 
	C29.720476,70.029732 40.421799,70.036186 51.591354,69.970795 
	C96.090851,69.916115 140.122101,69.933289 184.625214,69.893646 
	C186.426468,69.863976 187.755890,69.891113 189.951324,69.926544 
	C203.600479,69.859924 216.383591,69.785011 229.166718,69.710098 
	C230.799789,69.776215 232.432846,69.842339 234.940399,69.940186 
	C242.206497,69.932838 248.598114,69.893761 255.456360,69.908875 
	C282.951813,69.930420 309.980652,69.897797 337.473999,69.927032 
	C358.590149,70.047974 379.241852,70.107048 399.893555,70.166122 
	C399.928619,104.924782 399.927948,139.683578 400.054718,174.441910 
	C400.067291,177.876495 398.993744,179.131134 395.485870,179.074203 
	C384.345734,178.893494 373.201263,178.981705 361.542786,178.470261 
	C361.027100,145.675888 361.027100,113.377213 361.027100,81.078537 
	C360.009674,82.882210 360.012207,84.686432 360.009308,86.490639 
	C359.960205,117.288712 359.910431,148.086792 359.402985,178.924530 
	C339.671783,178.910080 320.398438,178.855972 301.111572,178.349319 
	C301.098114,172.299301 301.098114,166.701813 301.098114,161.104340 
	C300.788940,161.111053 300.479767,161.117767 300.170563,161.124481 
	C299.796844,167.150131 299.423096,173.175797 298.578369,179.177094 
	C287.373566,179.256378 276.639709,179.360016 265.481598,179.395477 
	C244.151733,179.454849 223.246262,179.654846 202.340546,179.687515 
	C184.925003,179.714737 167.509140,179.545578 149.625977,179.351959 
	C139.469406,179.131165 129.780304,179.021805 120.025055,178.453781 
	C119.958900,172.396988 119.958900,166.798859 119.958900,161.200729 
	C119.764069,161.206848 119.569244,161.212982 119.374413,161.219101 
	C118.980484,167.242081 118.586548,173.265076 117.717461,179.211411 
	C97.884369,179.044388 78.526436,178.954025 59.101265,178.407959 
	C59.034023,145.672775 59.034023,113.393295 59.034023,81.113823 
	C58.009693,82.921310 58.024891,84.728943 58.007435,86.536263 
	C57.707283,117.612869 57.227123,148.689087 57.163803,179.766144 
	C57.123894,199.352997 57.855831,218.940247 57.968559,238.528900 
	C58.086422,259.009766 57.877289,279.492523 57.354424,299.986877 
	C44.300243,299.960175 31.702726,299.921021 19.105209,299.881866 
	C19.068380,258.396271 19.018908,216.910690 18.998623,175.425095 
	C18.981596,140.602463 18.998592,105.779816 19.009838,70.490219 
M43.717670,179.697189 
	C38.093719,179.697189 32.469769,179.697189 26.845816,179.697189 
	C26.855167,180.047501 26.864517,180.397797 26.873869,180.748108 
	C34.358753,180.748108 41.843636,180.748108 49.328518,180.748108 
	C49.339756,180.569519 49.350998,180.390945 49.362240,180.212357 
	C47.758137,180.095139 46.154034,179.977905 43.717670,179.697189 
M347.664734,100.024429 
	C348.364777,99.907249 349.064789,99.790077 349.764832,99.672905 
	C349.748108,99.549438 349.731384,99.425964 349.714691,99.302498 
	C340.296265,99.302498 330.877838,99.302498 321.459381,99.302498 
	C321.459381,99.543884 321.459351,99.785263 321.459320,100.026649 
	C329.916718,100.026649 338.374084,100.026649 347.664734,100.024429 
M188.452484,100.027077 
	C191.905334,100.027077 195.358200,100.027077 198.811050,100.027077 
	C198.806961,99.766609 198.802872,99.506134 198.798767,99.245667 
	C189.266953,99.245667 179.735138,99.245667 170.203323,99.245667 
	C170.197632,99.506142 170.191956,99.766609 170.186264,100.027084 
	C175.947113,100.027084 181.707947,100.027084 188.452484,100.027077 
M282.524628,98.972923 
	C278.693146,98.972923 274.861664,98.972923 271.030182,98.972923 
	C271.034729,99.244987 271.039307,99.517059 271.043854,99.789124 
	C280.387115,99.789124 289.730377,99.789124 299.073639,99.789124 
	C299.080048,99.517052 299.086456,99.244987 299.092865,98.972916 
	C293.900085,98.972916 288.707306,98.972916 282.524628,98.972923 
M243.263046,100.027061 
	C245.204544,100.027061 247.146057,100.027061 249.087555,100.027061 
	C249.084747,99.789368 249.081924,99.551674 249.079117,99.313980 
	C239.731125,99.313980 230.383133,99.313980 221.035141,99.313980 
	C221.034256,99.551682 221.033371,99.789375 221.032471,100.027077 
	C228.128845,100.027077 235.225235,100.027077 243.263046,100.027061 
M141.331573,99.029663 
	C134.232864,99.029663 127.134140,99.029663 120.035423,99.029663 
	C120.037811,99.267464 120.040199,99.505257 120.042580,99.743057 
	C129.378906,99.743057 138.715225,99.743057 148.051559,99.743057 
	C148.053802,99.505264 148.056046,99.267479 148.058289,99.029686 
	C146.128464,99.029686 144.198624,99.029686 141.331573,99.029663 
M70.458824,99.916962 
	C79.647835,99.916962 88.836845,99.916962 98.025856,99.916962 
	C98.022392,99.759102 98.018936,99.601242 98.015472,99.443382 
	C88.621941,99.443382 79.228401,99.443382 70.458824,99.916962 
z"/>
<path fill="#1C961B" opacity="1.000000" stroke="none" 
	d="
M343.575897,28.662180 
	C362.293030,28.442516 380.548584,28.326122 399.248962,28.219139 
	C399.781372,41.459110 399.869019,54.689667 399.465546,68.430664 
	C378.319427,69.005722 357.664490,69.070343 336.542847,69.081772 
	C309.047363,69.067543 282.018524,69.106491 254.526031,69.079575 
	C247.703827,69.014549 241.345261,69.015373 234.986710,69.016197 
	C234.905884,55.976921 234.825073,42.937641 234.853516,29.439487 
	C268.688965,28.955093 302.415131,28.932209 336.141327,28.898335 
	C338.465698,28.896000 340.790009,28.811655 343.575897,28.662180 
z"/>
<path fill="#1C961B" opacity="1.000000" stroke="none" 
	d="
M399.914734,571.396240 
	C370.388824,571.902466 340.900208,571.967224 311.411621,571.995178 
	C286.252747,572.019104 261.093811,572.000671 235.466049,572.002136 
	C234.918106,559.274841 234.839020,546.546387 235.304459,533.381836 
	C254.956818,532.964783 274.064697,533.020447 293.172485,532.994934 
	C328.061249,532.948364 362.949982,532.853699 397.838715,532.779114 
	C398.559204,534.414734 399.878265,536.041138 399.903442,537.687378 
	C400.073059,548.768860 399.968109,559.854553 399.914734,571.396240 
z"/>
<path fill="#1C961B" opacity="1.000000" stroke="none" 
	d="
M397.030334,301.004517 
	C398.020233,302.848938 399.865112,304.689392 399.873718,306.538361 
	C400.043457,343.003906 399.962524,379.470581 400.057373,415.936676 
	C400.067017,419.654510 399.264526,421.155243 395.062317,421.145264 
	C385.115356,421.121674 375.166840,421.778076 364.389771,422.099243 
	C362.792938,422.026001 362.025299,422.013031 361.180847,421.536682 
	C361.066223,412.078308 360.986511,403.083252 360.998047,394.088318 
	C361.037415,363.437378 361.108917,332.786469 361.624939,302.110413 
	C372.869812,301.961029 383.657898,301.836731 394.779480,301.670319 
	C395.752106,301.420288 396.391235,301.212402 397.030334,301.004517 
z"/>
<path fill="#1C961B" opacity="1.000000" stroke="none" 
	d="
M397.434418,300.956360 
	C396.391235,301.212402 395.752106,301.420288 394.684509,301.371674 
	C392.677094,300.842560 391.102661,300.365356 389.518555,300.330963 
	C380.059906,300.125641 370.599060,300.022461 361.082764,299.426636 
	C361.014435,288.647919 360.977844,278.327606 360.994751,268.007324 
	C361.042236,239.047150 361.111786,210.087006 361.172607,181.126846 
	C372.661285,181.101807 384.150970,181.153336 395.637970,181.001907 
	C398.803589,180.960175 400.056885,181.930740 400.049469,185.256561 
	C399.966400,222.554489 400.018005,259.852722 399.906219,297.150482 
	C399.902435,298.405121 398.558014,299.655731 397.434418,300.956360 
z"/>
<path fill="#1C961B" opacity="1.000000" stroke="none" 
	d="
M361.257629,422.000092 
	C362.025299,422.013031 362.792938,422.026001 363.952179,422.058990 
	C373.434845,422.380157 382.524170,422.762604 391.617523,422.959656 
	C400.822632,423.159088 399.984802,421.932709 399.992035,431.169006 
	C400.016785,462.760895 400.026489,494.352875 399.941620,525.944519 
	C399.936310,527.922852 399.070953,529.898804 397.766968,532.011963 
	C385.040405,532.148132 373.152588,532.148132 360.990326,532.148132 
	C360.990326,512.231995 360.955627,493.292175 361.000427,474.352539 
	C361.041748,456.901611 361.168518,439.450897 361.257629,422.000092 
z"/>
<path fill="#9CD19C" opacity="1.000000" stroke="none" 
	d="
M361.180847,421.536682 
	C361.168518,439.450897 361.041748,456.901611 361.000427,474.352539 
	C360.955627,493.292175 360.990326,512.231995 360.990326,532.148132 
	C373.152588,532.148132 385.040405,532.148132 397.384338,532.184570 
	C397.840424,532.221069 397.823395,532.500122 397.831055,532.639648 
	C362.949982,532.853699 328.061249,532.948364 293.172485,532.994934 
	C274.064697,533.020447 254.956818,532.964783 235.374878,532.909668 
	C234.900787,532.873718 234.677689,532.629883 235.234863,532.371948 
	C277.027557,532.114014 318.263092,532.114014 359.613647,532.114014 
	C359.613647,495.067200 359.613647,458.724823 359.613647,422.234955 
	C358.254028,422.147644 357.276764,422.030273 356.299500,422.030060 
	C308.181854,422.020416 260.064240,422.036346 211.946609,422.012451 
	C192.634552,422.002838 173.322510,421.907959 154.009277,421.675964 
	C154.008102,421.500000 154.010483,421.148132 154.474335,421.081970 
	C203.157898,421.015808 251.377609,421.015808 300.135773,421.015808 
	C300.135773,414.324921 300.135773,408.423950 300.135773,402.522949 
	C300.504456,402.529572 300.873169,402.536194 301.241852,402.542816 
	C301.241852,408.606934 301.241852,414.671082 301.241852,420.740479 
	C321.046509,420.740479 340.286652,420.740479 359.531830,420.740479 
	C359.727295,419.973694 359.950897,419.506500 359.950562,419.039398 
	C359.922333,380.071655 359.876801,341.103943 359.832581,301.760834 
	C359.842072,300.885193 359.851410,300.384949 359.916901,299.426300 
	C359.985229,289.313782 360.020874,279.659576 360.005157,270.005463 
	C359.956909,240.380325 359.889008,210.755203 359.829285,180.755768 
	C359.840179,179.882599 359.850494,179.383728 359.860809,178.884857 
	C359.910431,148.086792 359.960205,117.288712 360.009308,86.490639 
	C360.012207,84.686432 360.009674,82.882210 361.027100,81.078537 
	C361.027100,113.377213 361.027100,145.675888 361.084381,178.432709 
	C361.150787,179.387665 361.159912,179.884476 361.170837,180.754059 
	C361.111786,210.087006 361.042236,239.047150 360.994751,268.007324 
	C360.977844,278.327606 361.014435,288.647919 361.083069,299.801819 
	C361.149078,301.135437 361.158630,301.635498 361.168152,302.135559 
	C361.108917,332.786469 361.037415,363.437378 360.998047,394.088318 
	C360.986511,403.083252 361.066223,412.078308 361.180847,421.536682 
z"/>
<path fill="#9CD19C" opacity="1.000000" stroke="none" 
	d="
M337.009521,69.134956 
	C357.664490,69.070343 378.319427,69.005722 399.433167,68.887909 
	C400.023010,69.187981 400.154114,69.541260 400.089355,70.030334 
	C379.241852,70.107048 358.590149,70.047974 337.472198,69.744476 
	C337.005951,69.500069 337.009521,69.134956 337.009521,69.134956 
z"/>
<path fill="#1C961B" opacity="1.000000" stroke="none" 
	d="
M154.010468,421.851868 
	C173.322510,421.907959 192.634552,422.002838 211.946609,422.012451 
	C260.064240,422.036346 308.181854,422.020416 356.299500,422.030060 
	C357.276764,422.030273 358.254028,422.147644 359.613647,422.234955 
	C359.613647,458.724823 359.613647,495.067200 359.613647,532.114014 
	C318.263092,532.114014 277.027557,532.114014 235.328445,532.235718 
	C233.242401,532.325073 231.619934,532.292725 229.134689,532.193970 
	C215.471237,532.163574 202.670578,532.199707 189.869919,532.235840 
	C188.216370,532.235840 186.562820,532.235840 184.794586,532.235840 
	C184.794586,545.396179 184.794586,558.495789 184.466339,571.987305 
	C181.986862,572.262817 179.835693,572.045471 177.684448,572.044678 
	C126.913658,572.025635 76.142860,572.029846 25.372070,572.029846 
	C23.419827,572.029846 21.467583,572.029846 19.267923,572.029846 
	C19.267923,558.871399 19.267923,546.296204 19.267923,532.986511 
	C41.935738,532.986511 64.498795,532.986511 87.992416,532.975159 
	C113.639320,532.963806 138.355652,532.963806 163.071991,532.963806 
	C163.071884,532.690735 163.071793,532.417725 163.071701,532.144653 
	C138.044403,532.144653 113.017090,532.144653 87.989784,532.144653 
	C78.535362,532.144653 69.080948,532.144653 59.311417,532.144653 
	C59.311417,495.272522 59.311417,459.039551 59.311417,421.988708 
	C65.214439,421.988708 71.138206,421.988708 77.992867,421.980042 
	C92.137184,421.971405 105.350609,421.971405 119.078659,421.971405 
	C119.078659,428.710297 119.078659,434.644592 119.078659,440.578918 
	C119.439323,440.575104 119.799980,440.571289 120.160645,440.567474 
	C120.160645,434.507904 120.160645,428.448303 120.160645,421.851868 
	C131.811752,421.851868 142.911102,421.851868 154.010468,421.851868 
M289.431152,501.746948 
	C283.382538,501.746948 277.333954,501.746948 271.285339,501.746948 
	C271.302124,501.990814 271.318939,502.234711 271.335724,502.478577 
	C280.504150,502.478577 289.672577,502.478577 298.841003,502.478577 
	C298.835815,502.235199 298.830627,501.991791 298.825470,501.748413 
	C296.015778,501.748413 293.206085,501.748413 289.431152,501.746948 
M349.671143,502.542969 
	C340.197327,502.542969 330.723480,502.542969 321.249664,502.542969 
	C321.247498,502.667023 321.245300,502.791107 321.243134,502.915161 
	C330.514465,502.915161 339.785797,502.915161 349.671143,502.542969 
M185.491318,501.934692 
	C180.403549,501.934692 175.315796,501.934692 170.228027,501.934692 
	C170.231018,502.201630 170.233994,502.468567 170.236984,502.735504 
	C179.743317,502.735504 189.249649,502.735504 198.755981,502.735504 
	C198.763382,502.468567 198.770798,502.201599 198.778198,501.934662 
	C194.679337,501.934662 190.580460,501.934662 185.491318,501.934692 
M230.556732,502.999390 
	C236.631653,502.999390 242.706589,502.999390 248.781509,502.999390 
	C248.770462,502.767822 248.759399,502.536224 248.748352,502.304657 
	C239.548584,502.304657 230.348801,502.304657 221.149033,502.304657 
	C221.150604,502.536224 221.152191,502.767822 221.153778,502.999390 
	C223.963593,502.999390 226.773407,502.999390 230.556732,502.999390 
M125.735977,502.999359 
	C133.125580,502.999359 140.515198,502.999359 147.904800,502.999359 
	C147.896805,502.744019 147.888809,502.488678 147.880814,502.233337 
	C138.571548,502.233337 129.262299,502.233337 119.953033,502.233337 
	C119.949532,502.488678 119.946022,502.743988 119.942520,502.999329 
	C121.567078,502.999329 123.191635,502.999329 125.735977,502.999359 
M91.318611,502.029877 
	C84.187759,502.029877 77.056900,502.029877 69.926048,502.029877 
	C69.930832,502.278625 69.935616,502.527405 69.940399,502.776154 
	C79.289299,502.776154 88.638206,502.776154 97.987106,502.776154 
	C97.993439,502.527405 97.999763,502.278625 98.006096,502.029877 
	C96.088013,502.029877 94.169937,502.029877 91.318611,502.029877 
z"/>
<path fill="#1C961B" opacity="1.000000" stroke="none" 
	d="
M359.832458,302.136169 
	C359.876801,341.103943 359.922333,380.071655 359.950562,419.039398 
	C359.950897,419.506500 359.727295,419.973694 359.531830,420.740479 
	C340.286652,420.740479 321.046509,420.740479 301.241852,420.740479 
	C301.241852,414.671082 301.241852,408.606934 301.241852,402.542816 
	C300.873169,402.536194 300.504456,402.529572 300.135773,402.522949 
	C300.135773,408.423950 300.135773,414.324921 300.135773,421.015808 
	C251.377609,421.015808 203.157898,421.015808 154.007721,421.027435 
	C142.176666,421.039062 131.276093,421.039062 119.890656,421.039062 
	C119.890656,414.290619 119.890656,408.315094 119.890656,402.339569 
	C119.536568,402.343323 119.182487,402.347107 118.828400,402.350891 
	C118.828400,408.410095 118.828400,414.469299 118.828400,421.134918 
	C104.843666,421.134918 91.417053,421.134918 77.990448,421.134918 
	C71.873802,421.134918 65.757149,421.134918 59.014256,421.134918 
	C59.014256,381.328827 59.014256,342.135864 59.510319,302.409607 
	C76.496658,301.853546 92.986954,301.806671 109.477203,301.817047 
	C119.232063,301.823212 118.246239,300.950958 118.269157,310.712128 
	C118.277100,314.093536 118.270432,317.475006 118.270432,320.856445 
	C118.868179,320.831573 119.465919,320.806702 120.063667,320.781830 
	C120.063667,316.649353 120.055664,312.516876 120.065498,308.384430 
	C120.081116,301.824158 120.086151,301.815399 126.566162,301.809387 
	C173.372635,301.765961 220.179092,301.704437 266.985565,301.702209 
	C277.641541,301.701721 288.297516,301.910583 298.968414,302.489532 
	C298.983337,308.939362 298.983337,314.922791 298.983337,320.906189 
	C299.671051,320.912079 300.358734,320.917969 301.046448,320.923859 
	C301.046448,314.623596 301.046448,308.323334 301.507965,301.952820 
	C315.293640,301.836700 328.617798,301.790833 342.410248,301.819336 
	C348.529846,301.974518 354.181152,302.055359 359.832458,302.136169 
M171.617050,361.015625 
	C171.164093,361.144043 170.711136,361.272491 169.137573,361.718628 
	C179.746155,361.718628 189.210617,361.718628 198.675079,361.718628 
	C198.677002,361.480194 198.678925,361.241730 198.680847,361.003296 
	C189.921814,361.003296 181.162766,361.003296 171.617050,361.015625 
M344.237793,362.003876 
	C345.833771,362.003876 347.429749,362.003876 349.025726,362.003876 
	C349.012939,361.778046 349.000183,361.552246 348.987427,361.326416 
	C339.784027,361.326416 330.580658,361.326416 321.377258,361.326416 
	C321.379150,361.551178 321.381012,361.775940 321.382904,362.000702 
	C328.688751,362.000702 335.994598,362.000702 344.237793,362.003876 
M291.388123,361.000580 
	C284.635864,361.000580 277.883606,361.000580 271.131348,361.000580 
	C271.138916,361.252350 271.146484,361.504150 271.154022,361.755920 
	C280.495789,361.755920 289.837524,361.755920 299.179260,361.755920 
	C299.179962,361.504089 299.180634,361.252258 299.181305,361.000427 
	C296.902252,361.000427 294.623230,361.000427 291.388123,361.000580 
M249.050766,361.567200 
	C239.756500,361.567200 230.462219,361.567200 221.167953,361.567200 
	C221.168076,361.682434 221.168198,361.797699 221.168320,361.912933 
	C230.235611,361.912933 239.302887,361.912933 249.050766,361.567200 
M137.465485,361.000610 
	C131.694595,361.000610 125.923706,361.000610 120.152817,361.000610 
	C120.159836,361.257294 120.166855,361.514008 120.173874,361.770691 
	C129.529587,361.770691 138.885315,361.770691 148.241028,361.770691 
	C148.245453,361.514008 148.249863,361.257294 148.254272,361.000610 
	C144.985550,361.000610 141.716843,361.000610 137.465485,361.000610 
M80.536743,361.000610 
	C77.023003,361.000610 73.509262,361.000610 69.995522,361.000610 
	C69.999680,361.267517 70.003838,361.534424 70.007996,361.801331 
	C79.362961,361.801331 88.717918,361.801331 98.072876,361.801331 
	C98.078888,361.534424 98.084908,361.267517 98.090919,361.000610 
	C92.568428,361.000610 87.045944,361.000610 80.536743,361.000610 
z"/>
<path fill="#1C961B" opacity="1.000000" stroke="none" 
	d="
M57.891129,301.944153 
	C57.891129,341.398682 57.891129,380.853241 57.891129,420.639709 
	C44.990162,420.639709 32.405167,420.639709 19.010323,420.639709 
	C19.010323,381.469757 19.010323,342.231750 19.492371,302.446899 
	C32.613323,301.914734 45.252224,301.929443 57.891129,301.944153 
z"/>
<path fill="#1C961B" opacity="1.000000" stroke="none" 
	d="
M58.009563,488.000000 
	C58.009567,502.782654 58.009567,517.065308 58.009567,531.686646 
	C44.957115,531.686646 32.379475,531.686646 19.396645,531.686646 
	C19.396645,495.358551 19.396645,459.009979 19.396645,422.343567 
	C32.027222,422.343567 44.605476,422.343567 58.009560,422.343567 
	C58.009560,444.039520 58.009560,465.769745 58.009563,488.000000 
z"/>
<path fill="#6ABA6A" opacity="1.000000" stroke="none" 
	d="
M58.193459,301.904724 
	C45.252224,301.929443 32.613323,301.914734 19.515709,301.982880 
	C19.052912,301.580170 19.048824,301.094574 19.074974,300.245422 
	C31.702726,299.921021 44.300243,299.960175 57.699135,300.058289 
	C58.730469,300.070435 58.960434,300.023621 59.646286,299.988495 
	C77.598763,299.982422 95.098045,299.790680 112.590195,300.060577 
	C117.385834,300.134552 118.713203,298.466064 118.392654,294.037750 
	C118.096855,289.951233 118.329697,285.826447 118.329697,281.718536 
	C118.989601,281.749786 119.649498,281.781067 120.309402,281.812347 
	C120.309402,287.717377 120.309402,293.622437 120.309402,299.569641 
	C121.734398,299.739197 122.546623,299.920410 123.358849,299.920441 
	C181.846466,299.923004 240.334076,299.911133 299.214478,299.903687 
	C300.130981,299.904785 300.654724,299.902649 301.634705,299.936096 
	C315.379822,300.039642 328.668732,300.107574 341.960205,300.437378 
	C341.955811,301.047852 341.948883,301.396393 341.941956,301.744965 
	C328.617798,301.790833 315.293640,301.836700 301.159088,301.954956 
	C299.883636,302.025940 299.418549,302.024506 298.953491,302.023102 
	C288.297516,301.910583 277.641541,301.701721 266.985565,301.702209 
	C220.179092,301.704437 173.372635,301.765961 126.566162,301.809387 
	C120.086151,301.815399 120.081116,301.824158 120.065498,308.384430 
	C120.055664,312.516876 120.063667,316.649353 120.063667,320.781830 
	C119.465919,320.806702 118.868179,320.831573 118.270432,320.856445 
	C118.270432,317.475006 118.277100,314.093536 118.269157,310.712128 
	C118.246239,300.950958 119.232063,301.823212 109.477203,301.817047 
	C92.986954,301.806671 76.496658,301.853546 59.547352,301.942810 
	C58.890812,301.961304 58.693302,301.913300 58.193459,301.904724 
z"/>
<path fill="#95CE95" opacity="1.000000" stroke="none" 
	d="
M77.992233,421.317444 
	C91.417053,421.134918 104.843666,421.134918 118.828400,421.134918 
	C118.828400,414.469299 118.828400,408.410095 118.828400,402.350891 
	C119.182487,402.347107 119.536568,402.343323 119.890656,402.339569 
	C119.890656,408.315094 119.890656,414.290619 119.890656,421.039062 
	C131.276093,421.039062 142.176666,421.039062 153.543869,421.093597 
	C154.010483,421.148132 154.008102,421.500000 154.009277,421.675934 
	C142.911102,421.851868 131.811752,421.851868 120.160645,421.851868 
	C120.160645,428.448303 120.160645,434.507904 120.160645,440.567474 
	C119.799980,440.571289 119.439323,440.575104 119.078659,440.578918 
	C119.078659,434.644592 119.078659,428.710297 119.078659,421.971405 
	C105.350609,421.971405 92.137184,421.971405 78.457092,421.918243 
	C77.990417,421.865082 77.994026,421.500000 77.992233,421.317444 
z"/>
<path fill="#95CE95" opacity="1.000000" stroke="none" 
	d="
M87.991119,532.322327 
	C113.017090,532.144653 138.044403,532.144653 163.071701,532.144653 
	C163.071793,532.417725 163.071884,532.690735 163.071991,532.963806 
	C138.355652,532.963806 113.639320,532.963806 88.456375,532.909546 
	C87.989754,532.855347 87.992455,532.500000 87.991119,532.322327 
z"/>
<path fill="#1C961B" opacity="1.000000" stroke="none" 
	d="
M229.210281,532.633057 
	C229.210281,540.015259 229.210281,547.397522 229.210281,555.045044 
	C216.410034,555.045044 203.494583,555.045044 189.841202,555.045044 
	C189.841202,548.065002 189.841202,540.995911 190.389816,533.473999 
	C203.695709,532.891724 216.453003,532.762390 229.210281,532.633057 
z"/>
<path fill="#1C961B" opacity="1.000000" stroke="none" 
	d="
M229.410599,571.826660 
	C216.408188,572.156433 203.684784,572.074341 190.494659,571.980225 
	C190.027939,568.174927 190.027939,564.381775 190.027939,560.272827 
	C203.083115,560.272827 216.112320,560.272827 229.689590,560.272827 
	C229.689590,563.954773 229.689590,567.684814 229.410599,571.826660 
z"/>
<path fill="#9CD19C" opacity="1.000000" stroke="none" 
	d="
M229.256943,532.574707 
	C216.453003,532.762390 203.695709,532.891724 190.469940,533.011414 
	C190.001465,533.001709 189.819138,532.638794 189.844528,532.437317 
	C202.670578,532.199707 215.471237,532.163574 228.735123,532.268982 
	C229.198349,532.410461 229.303604,532.516418 229.256943,532.574707 
z"/>
<path fill="#1C961B" opacity="1.000000" stroke="none" 
	d="
M189.999969,69.000046 
	C189.999969,61.884583 189.999969,54.769119 189.999969,47.348331 
	C203.090118,47.348331 216.123825,47.348331 229.692078,47.348331 
	C229.692078,54.407177 229.692078,61.481209 228.946838,68.793945 
	C215.467728,69.021782 202.733856,69.010918 189.999969,69.000046 
z"/>
<path fill="#1C961B" opacity="1.000000" stroke="none" 
	d="
M189.957031,29.494205 
	C202.966568,29.078831 215.854294,29.111637 229.187088,29.153385 
	C229.632172,33.439667 229.632172,37.717010 229.632172,42.321819 
	C216.412689,42.321819 203.404663,42.321819 189.835190,42.321819 
	C189.835190,38.120308 189.835190,34.031349 189.957031,29.494205 
z"/>
<path fill="#9CD19C" opacity="1.000000" stroke="none" 
	d="
M189.918610,69.188675 
	C202.733856,69.010918 215.467728,69.021782 228.671204,69.127953 
	C229.140793,69.223251 229.320084,69.457817 229.243408,69.583954 
	C216.383591,69.785011 203.600479,69.859924 190.345581,69.860672 
	C189.873825,69.786507 189.837250,69.377296 189.918610,69.188675 
z"/>
<path fill="#9CD19C" opacity="1.000000" stroke="none" 
	d="
M234.910553,69.203110 
	C241.345261,69.015373 247.703827,69.014549 254.527359,69.256889 
	C254.992340,69.500061 254.989746,69.854691 254.989746,69.854691 
	C248.598114,69.893761 242.206497,69.932838 235.346069,69.881653 
	C234.877258,69.791405 234.834381,69.390022 234.910553,69.203110 
z"/>
<path fill="#9CD19C" opacity="1.000000" stroke="none" 
	d="
M59.190399,299.976807 
	C58.960434,300.023621 58.730469,300.070435 58.155800,300.045837 
	C57.877289,279.492523 58.086422,259.009766 57.968559,238.528900 
	C57.855831,218.940247 57.123894,199.352997 57.163803,179.766144 
	C57.227123,148.689087 57.707283,117.612869 58.007435,86.536263 
	C58.024891,84.728943 58.009693,82.921310 59.034023,81.113823 
	C59.034023,113.393295 59.034023,145.672775 59.091499,178.778778 
	C59.134617,180.099060 59.120262,180.592804 59.062218,181.547516 
	C59.009167,198.339188 58.970211,214.669922 58.997562,231.000565 
	C59.036076,253.992691 59.123745,276.984741 59.190399,299.976807 
z"/>
<path fill="#6ABA6A" opacity="1.000000" stroke="none" 
	d="
M150.093430,179.463394 
	C167.509140,179.545578 184.925003,179.714737 202.340546,179.687515 
	C223.246262,179.654846 244.151733,179.454849 265.502441,179.635864 
	C265.977936,180.269943 265.988953,180.596130 265.515015,180.964905 
	C226.705414,180.982010 188.361389,180.957184 150.017899,180.685852 
	C150.036484,180.113480 150.061478,179.788177 150.093430,179.463394 
z"/>
<path fill="#5CB45C" opacity="1.000000" stroke="none" 
	d="
M59.105907,181.086548 
	C59.120262,180.592804 59.134617,180.099060 59.158737,179.234497 
	C78.526436,178.954025 97.884369,179.044388 117.719177,179.475464 
	C118.161987,180.167496 118.127922,180.518814 117.620941,180.927338 
	C97.800659,181.018539 78.453285,181.052551 59.105907,181.086548 
z"/>
<path fill="#5CB45C" opacity="1.000000" stroke="none" 
	d="
M359.402985,178.924530 
	C359.850494,179.383728 359.840179,179.882599 359.372772,180.732361 
	C339.669006,181.137604 320.422363,181.191986 301.165283,180.839096 
	C301.144958,179.888519 301.135010,179.345184 301.125061,178.801865 
	C320.398438,178.855972 339.671783,178.910080 359.402985,178.924530 
z"/>
<path fill="#95CE95" opacity="1.000000" stroke="none" 
	d="
M255.456360,69.908875 
	C254.989746,69.854691 254.992340,69.500061 254.991028,69.322754 
	C282.018524,69.106491 309.047363,69.067543 336.542847,69.081772 
	C337.009521,69.134956 337.005951,69.500069 337.007751,69.682617 
	C309.980652,69.897797 282.951813,69.930420 255.456360,69.908875 
z"/>
<path fill="#5CB45C" opacity="1.000000" stroke="none" 
	d="
M265.980591,180.922974 
	C265.988953,180.596130 265.977936,180.269943 265.926727,179.704041 
	C276.639709,179.360016 287.373566,179.256378 298.562256,179.481903 
	C299.005493,180.219635 298.993835,180.628235 298.514954,181.041306 
	C287.358704,181.004837 276.669647,180.963898 265.980591,180.922974 
z"/>
<path fill="#6ABA6A" opacity="1.000000" stroke="none" 
	d="
M298.982178,181.036835 
	C298.993835,180.628235 299.005493,180.219635 299.033264,179.506241 
	C299.423096,173.175797 299.796844,167.150131 300.170563,161.124481 
	C300.479767,161.117767 300.788940,161.111053 301.098114,161.104340 
	C301.098114,166.701813 301.098114,172.299301 301.111572,178.349319 
	C301.135010,179.345184 301.144958,179.888519 301.131897,181.288437 
	C301.108917,187.813675 301.108917,193.482330 301.108917,199.150970 
	C300.400024,199.133331 299.691101,199.115692 298.982208,199.098068 
	C298.982208,193.077652 298.982208,187.057251 298.982178,181.036835 
z"/>
<path fill="#95CE95" opacity="1.000000" stroke="none" 
	d="
M118.093857,180.870148 
	C118.127922,180.518814 118.161987,180.167496 118.194336,179.552109 
	C118.586548,173.265076 118.980484,167.242081 119.374413,161.219101 
	C119.569244,161.212982 119.764069,161.206848 119.958900,161.200729 
	C119.958900,166.798859 119.958900,172.396988 120.027771,178.819992 
	C120.105736,180.132980 120.114838,180.621078 120.040665,181.563660 
	C119.957390,187.617493 119.957390,193.216873 119.957390,198.816269 
	C119.660652,198.813217 119.363914,198.810181 119.067177,198.807129 
	C118.742737,192.828140 118.418297,186.849136 118.093857,180.870148 
z"/>
<path fill="#5CB45C" opacity="1.000000" stroke="none" 
	d="
M120.123932,181.109192 
	C120.114838,180.621078 120.105736,180.132980 120.093918,179.278656 
	C129.780304,179.021805 139.469406,179.131165 149.625977,179.351959 
	C150.061478,179.788177 150.036484,180.113480 149.549042,180.723663 
	C139.427734,181.041748 129.775833,181.075470 120.123932,181.109192 
z"/>
<path fill="#1C961B" opacity="1.000000" stroke="none" 
	d="
M44.133804,179.778931 
	C46.154034,179.977905 47.758137,180.095139 49.362240,180.212357 
	C49.350998,180.390945 49.339756,180.569519 49.328518,180.748108 
	C41.843636,180.748108 34.358753,180.748108 26.873869,180.748108 
	C26.864517,180.397797 26.855167,180.047501 26.845816,179.697189 
	C32.469769,179.697189 38.093719,179.697189 44.133804,179.778931 
z"/>
<path fill="#9CD19C" opacity="1.000000" stroke="none" 
	d="
M347.248108,100.025543 
	C338.374084,100.026649 329.916718,100.026649 321.459320,100.026649 
	C321.459351,99.785263 321.459381,99.543884 321.459381,99.302498 
	C330.877838,99.302498 340.296265,99.302498 349.714691,99.302498 
	C349.731384,99.425964 349.748108,99.549438 349.764832,99.672905 
	C349.064789,99.790077 348.364777,99.907249 347.248108,100.025543 
z"/>
<path fill="#9CD19C" opacity="1.000000" stroke="none" 
	d="
M187.960632,100.027084 
	C181.707947,100.027084 175.947113,100.027084 170.186264,100.027084 
	C170.191956,99.766609 170.197632,99.506142 170.203323,99.245667 
	C179.735138,99.245667 189.266953,99.245667 198.798767,99.245667 
	C198.802872,99.506134 198.806961,99.766609 198.811050,100.027077 
	C195.358200,100.027077 191.905334,100.027077 187.960632,100.027084 
z"/>
<path fill="#9CD19C" opacity="1.000000" stroke="none" 
	d="
M283.019592,98.972916 
	C288.707306,98.972916 293.900085,98.972916 299.092865,98.972916 
	C299.086456,99.244987 299.080048,99.517052 299.073639,99.789124 
	C289.730377,99.789124 280.387115,99.789124 271.043854,99.789124 
	C271.039307,99.517059 271.034729,99.244987 271.030182,98.972923 
	C274.861664,98.972923 278.693146,98.972923 283.019592,98.972916 
z"/>
<path fill="#9CD19C" opacity="1.000000" stroke="none" 
	d="
M242.792328,100.027069 
	C235.225235,100.027077 228.128845,100.027077 221.032471,100.027077 
	C221.033371,99.789375 221.034256,99.551682 221.035141,99.313980 
	C230.383133,99.313980 239.731125,99.313980 249.079117,99.313980 
	C249.081924,99.551674 249.084747,99.789368 249.087555,100.027061 
	C247.146057,100.027061 245.204544,100.027061 242.792328,100.027069 
z"/>
<path fill="#9CD19C" opacity="1.000000" stroke="none" 
	d="
M141.800186,99.029678 
	C144.198624,99.029686 146.128464,99.029686 148.058289,99.029686 
	C148.056046,99.267479 148.053802,99.505264 148.051559,99.743057 
	C138.715225,99.743057 129.378906,99.743057 120.042580,99.743057 
	C120.040199,99.505257 120.037811,99.267464 120.035423,99.029663 
	C127.134140,99.029663 134.232864,99.029663 141.800186,99.029678 
z"/>
<path fill="#9CD19C" opacity="1.000000" stroke="none" 
	d="
M70.146851,99.680176 
	C79.228401,99.443382 88.621941,99.443382 98.015472,99.443382 
	C98.018936,99.601242 98.022392,99.759102 98.025856,99.916962 
	C88.836845,99.916962 79.647835,99.916962 70.146851,99.680176 
z"/>
<path fill="#5CB45C" opacity="1.000000" stroke="none" 
	d="
M361.624939,302.110413 
	C361.158630,301.635498 361.149078,301.135437 361.139221,300.260193 
	C370.599060,300.022461 380.059906,300.125641 389.518555,300.330963 
	C391.102661,300.365356 392.677094,300.842560 394.351013,301.413818 
	C383.657898,301.836731 372.869812,301.961029 361.624939,302.110413 
z"/>
<path fill="#1C961B" opacity="1.000000" stroke="none" 
	d="
M120.040665,181.563660 
	C129.775833,181.075470 139.427734,181.041748 149.548492,180.970200 
	C188.361389,180.957184 226.705414,180.982010 265.515015,180.964890 
	C276.669647,180.963898 287.358704,181.004837 298.514984,181.041306 
	C298.982208,187.057251 298.982208,193.077652 298.982208,199.098068 
	C299.691101,199.115692 300.400024,199.133331 301.108917,199.150970 
	C301.108917,193.482330 301.108917,187.813675 301.142303,181.695694 
	C320.422363,181.191986 339.669006,181.137604 359.372192,181.106659 
	C359.889008,210.755203 359.956909,240.380325 360.005157,270.005463 
	C360.020874,279.659576 359.985229,289.313782 359.459900,299.466003 
	C353.283722,300.034576 347.620697,300.105072 341.957642,300.175537 
	C328.668732,300.107574 315.379822,300.039642 301.578308,299.478149 
	C301.065674,293.263489 301.065674,287.542358 301.065674,281.821198 
	C300.317688,281.833252 299.569672,281.845276 298.821686,281.857300 
	C298.821686,287.871674 298.821686,293.886047 298.821686,299.900421 
	C240.334076,299.911133 181.846466,299.923004 123.358849,299.920441 
	C122.546623,299.920410 121.734398,299.739197 120.309402,299.569641 
	C120.309402,293.622437 120.309402,287.717377 120.309402,281.812347 
	C119.649498,281.781067 118.989601,281.749786 118.329697,281.718536 
	C118.329697,285.826447 118.096855,289.951233 118.392654,294.037750 
	C118.713203,298.466064 117.385834,300.134552 112.590195,300.060577 
	C95.098045,299.790680 77.598763,299.982422 59.646286,299.988495 
	C59.123745,276.984741 59.036076,253.992691 58.997562,231.000565 
	C58.970211,214.669922 59.009167,198.339188 59.062218,181.547516 
	C78.453285,181.052551 97.800659,181.018539 117.620941,180.927338 
	C118.418297,186.849136 118.742737,192.828140 119.067177,198.807129 
	C119.363914,198.810181 119.660652,198.813217 119.957390,198.816269 
	C119.957390,193.216873 119.957390,187.617493 120.040665,181.563660 
M322.686127,240.987625 
	C331.705811,240.987625 340.725464,240.987625 349.745148,240.987625 
	C340.489594,240.095352 331.239502,240.095093 321.989532,240.129456 
	C321.980438,240.129486 321.973297,240.648529 322.686127,240.987625 
M174.028091,240.000443 
	C172.769287,240.083282 171.510498,240.166122 170.251694,240.248962 
	C170.258942,240.405777 170.266205,240.562576 170.273453,240.719391 
	C179.741837,240.719391 189.210205,240.719391 198.678574,240.719391 
	C198.680511,240.479721 198.682449,240.240036 198.684372,240.000366 
	C190.759033,240.000366 182.833694,240.000366 174.028091,240.000443 
M79.560150,240.999664 
	C85.663139,240.999664 91.766129,240.999664 97.869118,240.999664 
	C97.860092,240.777405 97.851074,240.555130 97.842056,240.332870 
	C88.617928,240.332870 79.393806,240.332870 70.169678,240.332870 
	C70.168900,240.555130 70.168121,240.777405 70.167343,240.999664 
	C72.974274,240.999664 75.781212,240.999664 79.560150,240.999664 
M138.444412,240.000336 
	C132.359238,240.000336 126.274071,240.000336 120.188904,240.000336 
	C120.190216,240.240692 120.191536,240.481049 120.192848,240.721405 
	C129.479889,240.721405 138.766937,240.721405 148.053986,240.721405 
	C148.059204,240.481049 148.064423,240.240692 148.069641,240.000336 
	C145.185837,240.000336 142.302017,240.000336 138.444412,240.000336 
M238.461197,240.999664 
	C241.938995,240.999664 245.416794,240.999664 248.894592,240.999664 
	C248.888458,240.771088 248.882309,240.542496 248.876175,240.313919 
	C239.614594,240.313919 230.353012,240.313919 221.091431,240.313919 
	C221.091019,240.542496 221.090607,240.771088 221.090179,240.999664 
	C226.551819,240.999664 232.013443,240.999664 238.461197,240.999664 
M295.088898,240.000488 
	C287.097351,240.000488 279.105804,240.000488 271.114258,240.000488 
	C271.120483,240.224792 271.126678,240.449097 271.132904,240.673401 
	C280.386932,240.673401 289.640991,240.673401 298.895050,240.673401 
	C298.893585,240.449265 298.892120,240.225113 298.890656,240.000977 
	C297.915436,240.000977 296.940186,240.000977 295.088898,240.000488 
z"/>
<path fill="#5CB45C" opacity="1.000000" stroke="none" 
	d="
M341.960205,300.437408 
	C347.620697,300.105072 353.283722,300.034576 359.403748,299.924377 
	C359.851410,300.384949 359.842072,300.885193 359.832581,301.760803 
	C354.181152,302.055359 348.529846,301.974518 342.410278,301.819336 
	C341.948883,301.396393 341.955811,301.047852 341.960205,300.437408 
z"/>
<path fill="#95CE95" opacity="1.000000" stroke="none" 
	d="
M289.913757,501.747681 
	C293.206085,501.748413 296.015778,501.748413 298.825470,501.748413 
	C298.830627,501.991791 298.835815,502.235199 298.841003,502.478577 
	C289.672577,502.478577 280.504150,502.478577 271.335724,502.478577 
	C271.318939,502.234711 271.302124,501.990814 271.285339,501.746948 
	C277.333954,501.746948 283.382538,501.746948 289.913757,501.747681 
z"/>
<path fill="#95CE95" opacity="1.000000" stroke="none" 
	d="
M349.364136,502.729065 
	C339.785797,502.915161 330.514465,502.915161 321.243134,502.915161 
	C321.245300,502.791107 321.247498,502.667023 321.249664,502.542969 
	C330.723480,502.542969 340.197327,502.542969 349.364136,502.729065 
z"/>
<path fill="#95CE95" opacity="1.000000" stroke="none" 
	d="
M185.986450,501.934692 
	C190.580460,501.934662 194.679337,501.934662 198.778198,501.934662 
	C198.770798,502.201599 198.763382,502.468567 198.755981,502.735504 
	C189.249649,502.735504 179.743317,502.735504 170.236984,502.735504 
	C170.233994,502.468567 170.231018,502.201630 170.228027,501.934692 
	C175.315796,501.934692 180.403549,501.934692 185.986450,501.934692 
z"/>
<path fill="#95CE95" opacity="1.000000" stroke="none" 
	d="
M230.069977,502.999390 
	C226.773407,502.999390 223.963593,502.999390 221.153778,502.999390 
	C221.152191,502.767822 221.150604,502.536224 221.149033,502.304657 
	C230.348801,502.304657 239.548584,502.304657 248.748352,502.304657 
	C248.759399,502.536224 248.770462,502.767822 248.781509,502.999390 
	C242.706589,502.999390 236.631653,502.999390 230.069977,502.999390 
z"/>
<path fill="#95CE95" opacity="1.000000" stroke="none" 
	d="
M125.276085,502.999329 
	C123.191635,502.999329 121.567078,502.999329 119.942520,502.999329 
	C119.946022,502.743988 119.949532,502.488678 119.953033,502.233337 
	C129.262299,502.233337 138.571548,502.233337 147.880814,502.233337 
	C147.888809,502.488678 147.896805,502.744019 147.904800,502.999359 
	C140.515198,502.999359 133.125580,502.999359 125.276085,502.999329 
z"/>
<path fill="#9CD19C" opacity="1.000000" stroke="none" 
	d="
M91.785233,502.029877 
	C94.169937,502.029877 96.088013,502.029877 98.006096,502.029877 
	C97.999763,502.278625 97.993439,502.527405 97.987106,502.776154 
	C88.638206,502.776154 79.289299,502.776154 69.940399,502.776154 
	C69.935616,502.527405 69.930832,502.278625 69.926048,502.029877 
	C77.056900,502.029877 84.187759,502.029877 91.785233,502.029877 
z"/>
<path fill="#5CB45C" opacity="1.000000" stroke="none" 
	d="
M298.968414,302.489532 
	C299.418549,302.024506 299.883636,302.025940 300.697571,302.025208 
	C301.046448,308.323334 301.046448,314.623596 301.046448,320.923859 
	C300.358734,320.917969 299.671051,320.912079 298.983337,320.906189 
	C298.983337,314.922791 298.983337,308.939362 298.968414,302.489532 
z"/>
<path fill="#95CE95" opacity="1.000000" stroke="none" 
	d="
M172.010376,361.009460 
	C181.162766,361.003296 189.921814,361.003296 198.680847,361.003296 
	C198.678925,361.241730 198.677002,361.480194 198.675079,361.718628 
	C189.210617,361.718628 179.746155,361.718628 169.137573,361.718628 
	C170.711136,361.272491 171.164093,361.144043 172.010376,361.009460 
z"/>
<path fill="#95CE95" opacity="1.000000" stroke="none" 
	d="
M343.769104,362.002289 
	C335.994598,362.000702 328.688751,362.000702 321.382904,362.000702 
	C321.381012,361.775940 321.379150,361.551178 321.377258,361.326416 
	C330.580658,361.326416 339.784027,361.326416 348.987427,361.326416 
	C349.000183,361.552246 349.012939,361.778046 349.025726,362.003876 
	C347.429749,362.003876 345.833771,362.003876 343.769104,362.002289 
z"/>
<path fill="#95CE95" opacity="1.000000" stroke="none" 
	d="
M291.866150,361.000488 
	C294.623230,361.000427 296.902252,361.000427 299.181305,361.000427 
	C299.180634,361.252258 299.179962,361.504089 299.179260,361.755920 
	C289.837524,361.755920 280.495789,361.755920 271.154022,361.755920 
	C271.146484,361.504150 271.138916,361.252350 271.131348,361.000580 
	C277.883606,361.000580 284.635864,361.000580 291.866150,361.000488 
z"/>
<path fill="#95CE95" opacity="1.000000" stroke="none" 
	d="
M248.710480,361.740051 
	C239.302887,361.912933 230.235611,361.912933 221.168320,361.912933 
	C221.168198,361.797699 221.168076,361.682434 221.167953,361.567200 
	C230.462219,361.567200 239.756500,361.567200 248.710480,361.740051 
z"/>
<path fill="#95CE95" opacity="1.000000" stroke="none" 
	d="
M137.956802,361.000610 
	C141.716843,361.000610 144.985550,361.000610 148.254272,361.000610 
	C148.249863,361.257294 148.245453,361.514008 148.241028,361.770691 
	C138.885315,361.770691 129.529587,361.770691 120.173874,361.770691 
	C120.166855,361.514008 120.159836,361.257294 120.152817,361.000610 
	C125.923706,361.000610 131.694595,361.000610 137.956802,361.000610 
z"/>
<path fill="#95CE95" opacity="1.000000" stroke="none" 
	d="
M81.030098,361.000610 
	C87.045944,361.000610 92.568428,361.000610 98.090919,361.000610 
	C98.084908,361.267517 98.078888,361.534424 98.072876,361.801331 
	C88.717918,361.801331 79.362961,361.801331 70.007996,361.801331 
	C70.003838,361.534424 69.999680,361.267517 69.995522,361.000610 
	C73.509262,361.000610 77.023003,361.000610 81.030098,361.000610 
z"/>
<path fill="#5CB45C" opacity="1.000000" stroke="none" 
	d="
M299.214478,299.903687 
	C298.821686,293.886047 298.821686,287.871674 298.821686,281.857300 
	C299.569672,281.845276 300.317688,281.833252 301.065674,281.821198 
	C301.065674,287.542358 301.065674,293.263489 301.122070,299.442566 
	C300.654724,299.902649 300.130981,299.904785 299.214478,299.903687 
z"/>
<path fill="#95CE95" opacity="1.000000" stroke="none" 
	d="
M322.325684,240.956375 
	C321.973297,240.648529 321.980438,240.129486 321.989532,240.129456 
	C331.239502,240.095093 340.489594,240.095352 349.745148,240.987625 
	C340.725464,240.987625 331.705811,240.987625 322.325684,240.956375 
z"/>
<path fill="#95CE95" opacity="1.000000" stroke="none" 
	d="
M174.468231,240.000397 
	C182.833694,240.000366 190.759033,240.000366 198.684372,240.000366 
	C198.682449,240.240036 198.680511,240.479721 198.678574,240.719391 
	C189.210205,240.719391 179.741837,240.719391 170.273453,240.719391 
	C170.266205,240.562576 170.258942,240.405777 170.251694,240.248962 
	C171.510498,240.166122 172.769287,240.083282 174.468231,240.000397 
z"/>
<path fill="#95CE95" opacity="1.000000" stroke="none" 
	d="
M79.074142,240.999664 
	C75.781212,240.999664 72.974274,240.999664 70.167343,240.999664 
	C70.168121,240.777405 70.168900,240.555130 70.169678,240.332870 
	C79.393806,240.332870 88.617928,240.332870 97.842056,240.332870 
	C97.851074,240.555130 97.860092,240.777405 97.869118,240.999664 
	C91.766129,240.999664 85.663139,240.999664 79.074142,240.999664 
z"/>
<path fill="#95CE95" opacity="1.000000" stroke="none" 
	d="
M138.931305,240.000336 
	C142.302017,240.000336 145.185837,240.000336 148.069641,240.000336 
	C148.064423,240.240692 148.059204,240.481049 148.053986,240.721405 
	C138.766937,240.721405 129.479889,240.721405 120.192848,240.721405 
	C120.191536,240.481049 120.190216,240.240692 120.188904,240.000336 
	C126.274071,240.000336 132.359238,240.000336 138.931305,240.000336 
z"/>
<path fill="#95CE95" opacity="1.000000" stroke="none" 
	d="
M237.968140,240.999664 
	C232.013443,240.999664 226.551819,240.999664 221.090179,240.999664 
	C221.090607,240.771088 221.091019,240.542496 221.091431,240.313919 
	C230.353012,240.313919 239.614594,240.313919 248.876175,240.313919 
	C248.882309,240.542496 248.888458,240.771088 248.894592,240.999664 
	C245.416794,240.999664 241.938995,240.999664 237.968140,240.999664 
z"/>
<path fill="#95CE95" opacity="1.000000" stroke="none" 
	d="
M295.526917,240.000732 
	C296.940186,240.000977 297.915436,240.000977 298.890656,240.000977 
	C298.892120,240.225113 298.893585,240.449265 298.895050,240.673401 
	C289.640991,240.673401 280.386932,240.673401 271.132904,240.673401 
	C271.126678,240.449097 271.120483,240.224792 271.114258,240.000488 
	C279.105804,240.000488 287.097351,240.000488 295.526917,240.000732 
z"/>
</svg>